<svg xmlns="http://www.w3.org/2000/svg" xmlns:xlink="http://www.w3.org/1999/xlink" width="1366" zoomAndPan="magnify" viewBox="0 0 1024.5 576" height="768" preserveAspectRatio="xMidYMid meet" version="1.0"><defs><g/></defs><path fill="#50e5f9" d="M 760.605469 264.507812 C 750.265625 264.507812 742.027344 272.917969 742.027344 283.085938 C 742.027344 293.425781 750.441406 301.660156 760.605469 301.660156 C 770.945312 301.660156 779.179688 293.25 779.179688 283.085938 C 779.179688 272.917969 770.945312 264.507812 760.605469 264.507812 Z M 699.265625 307.621094 C 695.9375 307.621094 692.605469 307.792969 689.625 308.671875 C 687.523438 309.195312 685.597656 310.074219 684.371094 311.300781 C 682.792969 313.050781 682.617188 315.15625 683.316406 317.082031 C 684.019531 318.835938 685.945312 320.0625 688.050781 320.761719 C 692.605469 322.339844 697.6875 322.691406 702.421875 323.566406 C 703.296875 323.742188 704.347656 324.09375 704.875 324.617188 C 705.398438 325.320312 705.050781 326.371094 704.171875 326.722656 C 702.59375 327.597656 700.667969 327.597656 698.738281 327.421875 C 697.164062 327.421875 695.234375 327.246094 694.007812 326.371094 C 692.957031 325.847656 692.957031 324.792969 693.132812 323.917969 L 682.441406 323.917969 C 682.441406 325.496094 682.792969 327.246094 683.84375 328.648438 C 684.894531 329.875 686.472656 330.753906 688.226562 331.101562 C 691.027344 331.980469 694.007812 332.15625 696.988281 332.15625 C 701.019531 332.15625 705.050781 332.15625 708.90625 331.277344 C 711.183594 330.753906 713.460938 329.875 714.863281 328.300781 C 717.492188 325.671875 716.792969 321.464844 713.460938 319.535156 C 711.707031 318.484375 709.605469 317.960938 707.503906 317.433594 C 704.347656 316.734375 701.367188 316.382812 698.214844 315.855469 C 697.164062 315.679688 695.9375 315.507812 695.058594 314.980469 C 694.183594 314.453125 694.007812 313.226562 695.058594 312.703125 C 696.285156 312 698.039062 312 699.617188 312 C 701.195312 312 702.945312 312.175781 704.347656 312.878906 C 705.050781 313.226562 705.398438 313.929688 705.398438 314.628906 L 715.5625 314.628906 C 715.5625 313.402344 715.214844 312 714.335938 310.949219 C 713.285156 309.546875 711.359375 308.671875 709.429688 308.144531 C 705.75 307.792969 702.421875 307.621094 699.265625 307.621094 Z M 721.171875 308.320312 L 721.171875 332.503906 L 750.789062 332.503906 L 750.789062 327.246094 L 732.039062 327.246094 L 732.039062 322.515625 L 748.6875 322.515625 L 748.6875 317.433594 L 732.039062 317.433594 L 732.039062 313.578125 L 750.089844 313.578125 L 750.089844 308.320312 Z M 770.066406 308.320312 C 770.066406 308.320312 760.953125 308.320312 756.398438 308.320312 L 756.398438 332.503906 L 766.738281 332.503906 L 766.738281 316.207031 L 780.933594 332.503906 L 795.128906 332.503906 L 795.128906 308.320312 L 784.789062 308.320312 L 784.789062 324.445312 Z M 813.707031 308.320312 C 813.707031 308.320312 802.488281 324.445312 796.882812 332.503906 L 807.746094 332.503906 L 810.375 328.125 L 827.199219 328.125 L 829.652344 332.503906 L 841.746094 332.503906 L 825.796875 308.320312 Z M 819.140625 314.105469 L 824.398438 322.867188 L 813.707031 322.867188 Z M 673.679688 339.515625 L 673.855469 352.660156 L 723.277344 352.484375 C 725.730469 353.011719 727.304688 354.585938 726.78125 358.441406 L 696.285156 411.542969 L 706.101562 420.832031 L 753.070312 339.515625 Z M 767.789062 339.515625 L 814.054688 420.484375 L 824.222656 411.371094 L 793.550781 358.269531 C 793.027344 354.585938 794.429688 352.835938 797.058594 352.308594 L 846.476562 352.484375 L 846.476562 339.515625 Z M 760.078125 353.011719 L 716.617188 427.316406 L 728.183594 432.925781 L 757.097656 384.03125 C 758.152344 383.152344 759.027344 382.804688 760.078125 382.804688 C 761.128906 382.804688 762.179688 383.152344 763.234375 384.03125 L 792.148438 433.101562 L 804.066406 426.96875 Z M 760.078125 353.011719 " fill-opacity="1" fill-rule="nonzero"/><path fill="#50e5f9" d="M 26.742188 466.21875 C 76.902344 425.769531 141.101562 419.070312 203.3125 421.46875 C 272.894531 424.132812 341.949219 437.5 409.953125 451.507812 C 540.957031 478.445312 673.1875 510.355469 807.992188 498.304688 C 842.015625 495.609375 875.445312 489.613281 908.285156 480.316406 C 939.960938 471.015625 976.171875 459.316406 1000.769531 436.648438 C 1001.183594 436.21875 1001.515625 435.730469 1001.769531 435.191406 C 1002.027344 434.648438 1002.1875 434.082031 1002.257812 433.488281 C 1002.332031 432.890625 1002.304688 432.300781 1002.183594 431.714844 C 1002.0625 431.128906 1001.851562 430.578125 1001.554688 430.0625 C 1001.253906 429.542969 1000.878906 429.085938 1000.429688 428.691406 C 999.980469 428.292969 999.484375 427.980469 998.933594 427.746094 C 998.382812 427.511719 997.808594 427.371094 997.210938 427.324219 C 996.613281 427.273438 996.027344 427.324219 995.445312 427.464844 C 964.734375 436.035156 936.160156 451.480469 905.300781 460.222656 C 873.421875 469.316406 840.984375 475.480469 807.992188 478.710938 C 743.648438 484.996094 678.304688 481.398438 614.253906 472.65625 C 476.785156 453.847656 340.515625 412.785156 201.003906 411.085938 C 138.703125 410.328125 72.308594 421.910156 23.464844 462.945312 C 21.15625 464.875 24.460938 468.09375 26.742188 466.21875 Z M 26.742188 466.21875 " fill-opacity="1" fill-rule="nonzero"/><g fill="#ffffff" fill-opacity="1"><g transform="translate(59.040144, 253.057274)"><g><path d="M 96.53125 2.109375 C 157.140625 2.109375 190.9375 -8.234375 190.9375 -49 C 190.9375 -87.65625 154.828125 -91.671875 96.53125 -94 C 64.421875 -95.265625 59.140625 -95.046875 59.140625 -100.75 C 59.140625 -106.453125 64.421875 -107.71875 90.1875 -107.71875 C 117.015625 -107.71875 129.6875 -106.03125 129.6875 -98.21875 L 184.609375 -98.21875 C 184.609375 -136.03125 152.078125 -149.96875 94.421875 -149.96875 C 36.125 -149.96875 4.21875 -136.03125 4.21875 -103.5 C 4.21875 -69.0625 29.78125 -58.078125 96.53125 -55.96875 C 131.171875 -54.921875 136.03125 -54.078125 136.03125 -47.734375 C 136.03125 -42.25 131.171875 -40.125 98.640625 -40.125 C 63.78125 -40.125 57.03125 -44.984375 57.03125 -52.171875 L 2.109375 -52.171875 C 2.109375 -8.234375 35.90625 2.109375 96.53125 2.109375 Z M 96.53125 2.109375 "/></g></g></g><g fill="#ffffff" fill-opacity="1"><g transform="translate(252.073534, 253.057274)"><g><path d="M 4.21875 0 L 59.140625 0 L 59.140625 -147.859375 L 4.21875 -147.859375 Z M 4.21875 0 "/></g></g></g><g fill="#ffffff" fill-opacity="1"><g transform="translate(315.432417, 253.057274)"><g><path d="M 88.71875 2.109375 C 119.765625 2.109375 139.1875 -6.765625 151.65625 -21.328125 L 155.671875 0 L 187.34375 0 L 187.34375 -80.46875 L 91.453125 -80.46875 L 91.453125 -50.90625 L 131.171875 -50.90625 C 129.0625 -40.96875 116.171875 -38.015625 95.046875 -38.015625 C 62.734375 -38.015625 57.03125 -54.078125 57.03125 -72.03125 C 57.03125 -89.765625 62.515625 -103.5 95.046875 -103.5 C 118.28125 -103.5 129.0625 -96.53125 131.171875 -88.921875 L 187.34375 -88.921875 C 185.03125 -129.265625 154.1875 -149.96875 95.046875 -149.96875 C 34.21875 -149.96875 2.109375 -125.46875 2.109375 -74.140625 C 2.109375 -22.59375 34.21875 2.109375 88.71875 2.109375 Z M 88.71875 2.109375 "/></g></g></g><g fill="#ffffff" fill-opacity="1"><g transform="translate(504.87546, 253.057274)"><g><path d="M 4.21875 0 L 59.140625 0 L 59.140625 -70.328125 L 99.484375 0 L 135.390625 0 L 175.734375 -70.328125 L 175.734375 0 L 230.65625 0 L 230.65625 -147.859375 L 163.0625 -147.859375 L 117.4375 -63.359375 L 71.8125 -147.859375 L 4.21875 -147.859375 Z M 4.21875 0 "/></g></g></g><g fill="#ffffff" fill-opacity="1"><g transform="translate(739.725743, 253.057274)"><g><path d="M 2.109375 0 L 62.515625 0 L 72.65625 -26.609375 L 135.609375 -26.609375 L 145.734375 0 L 206.15625 0 L 144.890625 -147.859375 L 63.359375 -147.859375 Z M 87.015625 -64.640625 L 104.125 -109.828125 L 121.234375 -64.640625 Z M 87.015625 -64.640625 "/></g></g></g><g fill="#50e5f9" fill-opacity="1"><g transform="translate(59.040144, 386.507283)"><g><path d="M 74.125 1.578125 C 118.15625 1.578125 144.296875 -5.546875 144.296875 -35.953125 C 144.296875 -64.625 117.203125 -67.3125 73.5 -69.375 C 46.890625 -70.640625 41.96875 -70.953125 41.96875 -76.65625 C 41.96875 -82.203125 46.890625 -83.625 68.90625 -83.625 C 92.03125 -83.625 102.484375 -81.890625 102.484375 -73.96875 L 139.546875 -73.96875 C 139.546875 -102 114.828125 -112.453125 72.0625 -112.453125 C 29.140625 -112.453125 4.90625 -102.796875 4.90625 -78.40625 C 4.90625 -52.90625 24.078125 -44.984375 73.5 -43.078125 C 102.640625 -41.96875 107.234375 -41.1875 107.234375 -35 C 107.234375 -29.296875 101.84375 -27.25 75.703125 -27.25 C 46.40625 -27.25 39.921875 -31.359375 39.921875 -38.8125 L 2.6875 -38.8125 C 2.6875 -6.171875 28.671875 1.578125 74.125 1.578125 Z M 74.125 1.578125 "/></g></g></g><g fill="#50e5f9" fill-opacity="1"><g transform="translate(206.177594, 386.507283)"><g><path d="M 72.390625 1.578125 C 121.015625 1.578125 142.078125 -17.734375 142.078125 -55.59375 C 142.078125 -93.296875 121.015625 -112.453125 72.390625 -112.453125 C 23.59375 -112.453125 2.6875 -93.453125 2.6875 -55.59375 C 2.6875 -17.578125 23.59375 1.578125 72.390625 1.578125 Z M 72.390625 -29.78125 C 46.40625 -29.78125 39.921875 -40.234375 39.921875 -55.59375 C 39.921875 -70.796875 46.25 -81.09375 72.390625 -81.09375 C 98.515625 -81.09375 105.015625 -70.640625 105.015625 -55.59375 C 105.015625 -40.390625 98.359375 -29.78125 72.390625 -29.78125 Z M 72.390625 -29.78125 "/></g></g></g><g fill="#50e5f9" fill-opacity="1"><g transform="translate(351.09768, 386.507283)"><g><path d="M 4.28125 0 L 41.5 0 L 41.5 -31.046875 L 111.984375 -31.046875 L 111.984375 -62.40625 L 41.5 -62.40625 L 41.5 -79.515625 L 121.484375 -79.515625 L 121.484375 -110.875 L 4.28125 -110.875 Z M 4.28125 0 "/></g></g></g><g fill="#50e5f9" fill-opacity="1"><g transform="translate(475.428032, 386.507283)"><g><path d="M 52.265625 0 L 89.484375 0 L 89.484375 -79.515625 L 138.90625 -79.515625 L 138.90625 -110.875 L 2.6875 -110.875 L 2.6875 -79.515625 L 52.265625 -79.515625 Z M 52.265625 0 "/></g></g></g></svg>