<svg xmlns="http://www.w3.org/2000/svg" xmlns:xlink="http://www.w3.org/1999/xlink" width="1366" zoomAndPan="magnify" viewBox="0 0 1024.5 576" height="768" preserveAspectRatio="xMidYMid meet" version="1.0"><defs><g/></defs><g fill="#ffffff" fill-opacity="1"><g transform="translate(7.831687, 319.262869)"><g><path d="M 59.28125 1.265625 C 94.5 1.265625 115.390625 -4.4375 115.390625 -28.75 C 115.390625 -51.6875 93.734375 -53.828125 58.78125 -55.484375 C 37.5 -56.5 33.5625 -56.75 33.5625 -61.3125 C 33.5625 -65.75 37.5 -66.875 55.109375 -66.875 C 73.59375 -66.875 81.953125 -65.484375 81.953125 -59.15625 L 111.59375 -59.15625 C 111.59375 -81.578125 91.84375 -89.9375 57.640625 -89.9375 C 23.3125 -89.9375 3.921875 -82.203125 3.921875 -62.703125 C 3.921875 -42.3125 19.25 -35.96875 58.78125 -34.453125 C 82.078125 -33.5625 85.75 -32.9375 85.75 -28 C 85.75 -23.4375 81.453125 -21.78125 60.546875 -21.78125 C 37.109375 -21.78125 31.921875 -25.078125 31.921875 -31.03125 L 2.15625 -31.03125 C 2.15625 -4.9375 22.921875 1.265625 59.28125 1.265625 Z M 59.28125 1.265625 "/></g></g></g><g fill="#ffffff" fill-opacity="1"><g transform="translate(125.503185, 319.262869)"><g><path d="M 3.421875 0 L 33.1875 0 L 33.1875 -88.671875 L 3.421875 -88.671875 Z M 3.421875 0 "/></g></g></g><g fill="#ffffff" fill-opacity="1"><g transform="translate(162.109285, 319.262869)"><g><path d="M 54.34375 1.265625 C 73.09375 1.265625 85.25 -4.3125 92.984375 -13.171875 L 95 0 L 113.25 0 L 113.25 -48.015625 L 56.109375 -48.015625 L 56.109375 -31.15625 L 82.96875 -31.15625 C 81.953125 -25.078125 73.84375 -20.78125 58.140625 -20.78125 C 35.59375 -20.78125 31.921875 -32.6875 31.921875 -43.453125 C 31.921875 -54.09375 35.46875 -64.859375 58.140625 -64.859375 C 75.375 -64.859375 81.703125 -58.78125 82.96875 -53.578125 L 113.25 -53.578125 C 111.84375 -77.015625 93.609375 -89.9375 58.140625 -89.9375 C 21.65625 -89.9375 2.15625 -74.734375 2.15625 -44.46875 C 2.15625 -13.9375 21.65625 1.265625 54.34375 1.265625 Z M 54.34375 1.265625 "/></g></g></g><g fill="#ffffff" fill-opacity="1"><g transform="translate(277.627495, 319.262869)"><g><path d="M 3.421875 0 L 33.1875 0 L 33.1875 -47.875 L 61.4375 0 L 81.328125 0 L 109.578125 -47.875 L 109.578125 0 L 139.21875 0 L 139.21875 -88.671875 L 101.84375 -88.671875 L 71.3125 -34.328125 L 40.921875 -88.671875 L 3.421875 -88.671875 Z M 3.421875 0 "/></g></g></g><g fill="#ffffff" fill-opacity="1"><g transform="translate(420.378618, 319.262869)"><g><path d="M 2.15625 0 L 34.828125 0 L 42.1875 -16.84375 L 84.609375 -16.84375 L 91.84375 0 L 124.515625 0 L 85 -88.671875 L 41.796875 -88.671875 Z M 50.546875 -37.875 L 63.328125 -67.515625 L 76.125 -37.875 Z M 50.546875 -37.875 "/></g></g></g><g fill="#50e5f9" fill-opacity="1"><g transform="translate(564.475064, 320.114626)"><g><path d="M 59.625 1.28125 C 95.046875 1.28125 116.0625 -4.453125 116.0625 -28.921875 C 116.0625 -51.984375 94.28125 -54.140625 59.109375 -55.796875 C 37.71875 -56.828125 33.765625 -57.078125 33.765625 -61.671875 C 33.765625 -66.125 37.71875 -67.265625 55.421875 -67.265625 C 74.015625 -67.265625 82.4375 -65.875 82.4375 -59.5 L 112.25 -59.5 C 112.25 -82.046875 92.375 -90.453125 57.96875 -90.453125 C 23.4375 -90.453125 3.953125 -82.6875 3.953125 -63.0625 C 3.953125 -42.546875 19.359375 -36.1875 59.109375 -34.65625 C 82.5625 -33.765625 86.25 -33.125 86.25 -28.15625 C 86.25 -23.5625 81.921875 -21.90625 60.90625 -21.90625 C 37.328125 -21.90625 32.109375 -25.21875 32.109375 -31.21875 L 2.171875 -31.21875 C 2.171875 -4.96875 23.0625 1.28125 59.625 1.28125 Z M 59.625 1.28125 "/></g></g></g><g fill="#50e5f9" fill-opacity="1"><g transform="translate(682.821331, 320.114626)"><g><path d="M 58.21875 1.28125 C 97.34375 1.28125 114.28125 -14.265625 114.28125 -44.71875 C 114.28125 -75.046875 97.34375 -90.453125 58.21875 -90.453125 C 18.984375 -90.453125 2.171875 -75.171875 2.171875 -44.71875 C 2.171875 -14.140625 18.984375 1.28125 58.21875 1.28125 Z M 58.21875 -23.953125 C 37.328125 -23.953125 32.109375 -32.359375 32.109375 -44.71875 C 32.109375 -56.953125 37.203125 -65.234375 58.21875 -65.234375 C 79.25 -65.234375 84.46875 -56.828125 84.46875 -44.71875 C 84.46875 -32.484375 79.125 -23.953125 58.21875 -23.953125 Z M 58.21875 -23.953125 "/></g></g></g><g fill="#50e5f9" fill-opacity="1"><g transform="translate(799.384129, 320.114626)"><g><path d="M 3.4375 0 L 33.375 0 L 33.375 -24.96875 L 90.078125 -24.96875 L 90.078125 -50.203125 L 33.375 -50.203125 L 33.375 -63.953125 L 97.71875 -63.953125 L 97.71875 -89.1875 L 3.4375 -89.1875 Z M 3.4375 0 "/></g></g></g><g fill="#50e5f9" fill-opacity="1"><g transform="translate(899.386093, 320.114626)"><g><path d="M 42.046875 0 L 71.984375 0 L 71.984375 -63.953125 L 111.734375 -63.953125 L 111.734375 -89.1875 L 2.171875 -89.1875 L 2.171875 -63.953125 L 42.046875 -63.953125 Z M 42.046875 0 "/></g></g></g></svg>