<svg xmlns="http://www.w3.org/2000/svg" xmlns:xlink="http://www.w3.org/1999/xlink" width="1366" zoomAndPan="magnify" viewBox="0 0 1024.5 576" height="768" preserveAspectRatio="xMidYMid meet" version="1.0"><defs><g/><clipPath id="ec513dc67e"><path d="M 686 277 L 834 277 L 834 421.957031 L 686 421.957031 Z M 686 277 " clip-rule="nonzero"/></clipPath></defs><g clip-path="url(#ec513dc67e)"><path fill="#50e5f9" d="M 760.523438 277.273438 C 751.703125 277.273438 744.675781 284.449219 744.675781 293.121094 C 744.675781 301.9375 751.851562 308.964844 760.523438 308.964844 C 769.34375 308.964844 776.371094 301.789062 776.371094 293.121094 C 776.371094 284.449219 769.34375 277.273438 760.523438 277.273438 Z M 708.199219 314.046875 C 705.359375 314.046875 702.519531 314.199219 699.976562 314.945312 C 698.183594 315.394531 696.539062 316.140625 695.492188 317.1875 C 694.148438 318.683594 694 320.476562 694.597656 322.121094 C 695.195312 323.617188 696.839844 324.664062 698.632812 325.261719 C 702.519531 326.605469 706.855469 326.90625 710.890625 327.652344 C 711.636719 327.800781 712.535156 328.101562 712.984375 328.550781 C 713.433594 329.148438 713.132812 330.042969 712.386719 330.34375 C 711.039062 331.089844 709.394531 331.089844 707.75 330.941406 C 706.40625 330.941406 704.761719 330.792969 703.714844 330.042969 C 702.820312 329.59375 702.820312 328.699219 702.96875 327.949219 L 693.847656 327.949219 C 693.847656 329.296875 694.148438 330.792969 695.042969 331.988281 C 695.941406 333.035156 697.289062 333.78125 698.78125 334.082031 C 701.175781 334.828125 703.714844 334.976562 706.257812 334.976562 C 709.695312 334.976562 713.132812 334.976562 716.421875 334.230469 C 718.367188 333.78125 720.308594 333.035156 721.503906 331.6875 C 723.746094 329.445312 723.148438 325.859375 720.308594 324.214844 C 718.8125 323.316406 717.019531 322.867188 715.226562 322.417969 C 712.535156 321.820312 709.996094 321.523438 707.304688 321.074219 C 706.40625 320.925781 705.359375 320.777344 704.613281 320.328125 C 703.863281 319.878906 703.714844 318.832031 704.613281 318.382812 C 705.660156 317.785156 707.152344 317.785156 708.5 317.785156 C 709.84375 317.785156 711.339844 317.933594 712.535156 318.53125 C 713.132812 318.832031 713.433594 319.429688 713.433594 320.027344 L 722.101562 320.027344 C 722.101562 318.980469 721.804688 317.785156 721.058594 316.886719 C 720.160156 315.691406 718.515625 314.945312 716.871094 314.496094 C 713.730469 314.199219 710.890625 314.046875 708.199219 314.046875 Z M 726.886719 314.644531 L 726.886719 335.277344 L 752.152344 335.277344 L 752.152344 330.792969 L 736.15625 330.792969 L 736.15625 326.753906 L 750.359375 326.753906 L 750.359375 322.417969 L 736.15625 322.417969 L 736.15625 319.132812 L 751.554688 319.132812 L 751.554688 314.644531 Z M 768.59375 314.644531 C 768.59375 314.644531 760.820312 314.644531 756.933594 314.644531 L 756.933594 335.277344 L 765.753906 335.277344 L 765.753906 321.375 L 777.863281 335.277344 L 789.972656 335.277344 L 789.972656 314.644531 L 781.152344 314.644531 L 781.152344 328.398438 Z M 805.820312 314.644531 C 805.820312 314.644531 796.25 328.398438 791.46875 335.277344 L 800.738281 335.277344 L 802.980469 331.539062 L 817.332031 331.539062 L 819.421875 335.277344 L 829.738281 335.277344 L 816.132812 314.644531 Z M 810.453125 319.578125 L 814.9375 327.054688 L 805.820312 327.054688 Z M 686.375 341.257812 L 686.523438 352.46875 L 728.679688 352.320312 C 730.773438 352.765625 732.121094 354.113281 731.671875 357.402344 L 705.660156 402.699219 L 714.03125 410.621094 L 754.09375 341.257812 Z M 766.652344 341.257812 L 806.117188 410.320312 L 814.789062 402.546875 L 788.628906 357.25 C 788.179688 354.113281 789.375 352.617188 791.617188 352.167969 L 833.773438 352.320312 L 833.773438 341.257812 Z M 760.074219 352.765625 L 723 416.152344 L 732.867188 420.9375 L 757.53125 379.226562 C 758.429688 378.480469 759.175781 378.179688 760.074219 378.179688 C 760.972656 378.179688 761.867188 378.480469 762.765625 379.226562 L 787.433594 421.085938 L 797.597656 415.851562 Z M 760.074219 352.765625 " fill-opacity="1" fill-rule="nonzero"/></g><path fill="#50e5f9" d="M 26.742188 461.332031 C 76.902344 420.878906 141.101562 414.183594 203.3125 416.582031 C 272.894531 419.242188 341.949219 432.609375 409.953125 446.617188 C 540.957031 473.558594 673.1875 505.464844 807.992188 493.417969 C 842.015625 490.722656 875.445312 484.726562 908.285156 475.429688 C 939.960938 466.128906 976.171875 454.429688 1000.769531 431.761719 C 1001.183594 431.328125 1001.515625 430.839844 1001.769531 430.300781 C 1002.027344 429.757812 1002.1875 429.191406 1002.257812 428.597656 C 1002.332031 428.003906 1002.304688 427.414062 1002.183594 426.828125 C 1002.0625 426.242188 1001.851562 425.6875 1001.554688 425.171875 C 1001.253906 424.652344 1000.878906 424.195312 1000.429688 423.800781 C 999.980469 423.40625 999.484375 423.089844 998.933594 422.855469 C 998.382812 422.621094 997.808594 422.480469 997.210938 422.433594 C 996.613281 422.386719 996.027344 422.433594 995.445312 422.578125 C 964.734375 431.148438 936.160156 446.589844 905.300781 455.335938 C 873.421875 464.425781 840.984375 470.589844 807.992188 473.820312 C 743.648438 480.109375 678.304688 476.511719 614.253906 467.765625 C 476.785156 448.957031 340.515625 407.894531 201.003906 406.199219 C 138.703125 405.4375 72.308594 417.019531 23.464844 458.054688 C 21.15625 459.984375 24.460938 463.203125 26.742188 461.332031 Z M 26.742188 461.332031 " fill-opacity="1" fill-rule="nonzero"/><g fill="#ffffff" fill-opacity="1"><g transform="translate(59.040144, 253.057274)"><g><path d="M 96.53125 2.109375 C 76.394531 2.109375 59.285156 0.628906 45.203125 -2.328125 C 31.117188 -5.285156 20.414062 -10.671875 13.09375 -18.484375 C 5.769531 -26.296875 2.109375 -37.523438 2.109375 -52.171875 L 57.03125 -52.171875 C 57.03125 -49.773438 58.082031 -47.660156 60.1875 -45.828125 C 62.300781 -44.003906 66.347656 -42.597656 72.328125 -41.609375 C 78.316406 -40.617188 87.085938 -40.125 98.640625 -40.125 C 109.484375 -40.125 117.578125 -40.367188 122.921875 -40.859375 C 128.273438 -41.359375 131.796875 -42.171875 133.484375 -43.296875 C 135.179688 -44.421875 136.03125 -45.898438 136.03125 -47.734375 C 136.03125 -49.847656 135.148438 -51.429688 133.390625 -52.484375 C 131.628906 -53.546875 127.929688 -54.320312 122.296875 -54.8125 C 116.660156 -55.300781 108.070312 -55.6875 96.53125 -55.96875 C 74.28125 -56.675781 56.394531 -58.578125 42.875 -61.671875 C 29.351562 -64.773438 19.53125 -69.671875 13.40625 -76.359375 C 7.28125 -83.046875 4.21875 -92.09375 4.21875 -103.5 C 4.21875 -119.832031 11.960938 -131.660156 27.453125 -138.984375 C 42.941406 -146.304688 65.265625 -149.96875 94.421875 -149.96875 C 113.710938 -149.96875 130.046875 -148.273438 143.421875 -144.890625 C 156.796875 -141.515625 167.003906 -136.054688 174.046875 -128.515625 C 181.085938 -120.984375 184.609375 -110.882812 184.609375 -98.21875 L 129.6875 -98.21875 C 129.6875 -102.15625 126.445312 -104.722656 119.96875 -105.921875 C 113.488281 -107.117188 103.5625 -107.71875 90.1875 -107.71875 C 81.601562 -107.71875 75.09375 -107.539062 70.65625 -107.1875 C 66.21875 -106.84375 63.1875 -106.175781 61.5625 -105.1875 C 59.945312 -104.195312 59.140625 -102.71875 59.140625 -100.75 C 59.140625 -98.914062 60.019531 -97.578125 61.78125 -96.734375 C 63.539062 -95.890625 67.09375 -95.328125 72.4375 -95.046875 C 77.789062 -94.765625 85.820312 -94.414062 96.53125 -94 C 111.175781 -93.425781 124.304688 -92.539062 135.921875 -91.34375 C 147.535156 -90.15625 157.425781 -88.082031 165.59375 -85.125 C 173.757812 -82.164062 180.023438 -77.832031 184.390625 -72.125 C 188.753906 -66.425781 190.9375 -58.71875 190.9375 -49 C 190.9375 -35.476562 187.273438 -25.019531 179.953125 -17.625 C 172.628906 -10.238281 161.960938 -5.101562 147.953125 -2.21875 C 133.941406 0.664062 116.800781 2.109375 96.53125 2.109375 Z M 96.53125 2.109375 "/></g></g></g><g fill="#ffffff" fill-opacity="1"><g transform="translate(252.073534, 253.057274)"><g><path d="M 4.21875 0 L 4.21875 -147.859375 L 59.140625 -147.859375 L 59.140625 0 Z M 4.21875 0 "/></g></g></g><g fill="#ffffff" fill-opacity="1"><g transform="translate(315.432417, 253.057274)"><g><path d="M 88.71875 2.109375 C 61.539062 2.109375 40.3125 -4.15625 25.03125 -16.6875 C 9.75 -29.21875 2.109375 -48.367188 2.109375 -74.140625 C 2.109375 -99.765625 9.992188 -118.804688 25.765625 -131.265625 C 41.535156 -143.734375 64.628906 -149.96875 95.046875 -149.96875 C 154.191406 -149.96875 184.957031 -129.617188 187.34375 -88.921875 L 131.171875 -88.921875 C 130.179688 -92.722656 126.832031 -96.101562 121.125 -99.0625 C 115.425781 -102.019531 106.734375 -103.5 95.046875 -103.5 C 84.203125 -103.5 76.066406 -102.085938 70.640625 -99.265625 C 65.222656 -96.453125 61.597656 -92.6875 59.765625 -87.96875 C 57.941406 -83.25 57.03125 -77.9375 57.03125 -72.03125 C 57.03125 -66.113281 57.941406 -60.550781 59.765625 -55.34375 C 61.597656 -50.132812 65.257812 -45.941406 70.75 -42.765625 C 76.25 -39.597656 84.347656 -38.015625 95.046875 -38.015625 C 105.609375 -38.015625 114.019531 -38.929688 120.28125 -40.765625 C 126.550781 -42.597656 130.179688 -45.976562 131.171875 -50.90625 L 91.453125 -50.90625 L 91.453125 -80.46875 L 187.34375 -80.46875 L 187.34375 0 L 155.671875 0 L 151.65625 -21.328125 C 145.457031 -14.003906 137.289062 -8.265625 127.15625 -4.109375 C 117.019531 0.0351562 104.207031 2.109375 88.71875 2.109375 Z M 88.71875 2.109375 "/></g></g></g><g fill="#ffffff" fill-opacity="1"><g transform="translate(504.87546, 253.057274)"><g><path d="M 4.21875 0 L 4.21875 -147.859375 L 71.8125 -147.859375 L 117.4375 -63.359375 L 163.0625 -147.859375 L 230.65625 -147.859375 L 230.65625 0 L 175.734375 0 L 175.734375 -70.328125 L 135.390625 0 L 99.484375 0 L 59.140625 -70.328125 L 59.140625 0 Z M 4.21875 0 "/></g></g></g><g fill="#ffffff" fill-opacity="1"><g transform="translate(739.725743, 253.057274)"><g><path d="M 2.109375 0 L 63.359375 -147.859375 L 144.890625 -147.859375 L 206.15625 0 L 145.734375 0 L 135.609375 -26.609375 L 72.65625 -26.609375 L 62.515625 0 Z M 87.015625 -64.640625 L 121.234375 -64.640625 L 104.125 -109.828125 Z M 87.015625 -64.640625 "/></g></g></g><g fill="#50e5f9" fill-opacity="1"><g transform="translate(57.571905, 388.390388)"><g><path d="M 74.125 1.578125 C 59.03125 1.578125 46.148438 0.472656 35.484375 -1.734375 C 24.816406 -3.953125 16.679688 -7.960938 11.078125 -13.765625 C 5.484375 -19.578125 2.6875 -27.925781 2.6875 -38.8125 L 39.921875 -38.8125 C 39.921875 -36.375 40.867188 -34.285156 42.765625 -32.546875 C 44.660156 -30.804688 48.195312 -29.488281 53.375 -28.59375 C 58.550781 -27.695312 65.992188 -27.25 75.703125 -27.25 C 84.472656 -27.25 91.097656 -27.507812 95.578125 -28.03125 C 100.066406 -28.5625 103.128906 -29.378906 104.765625 -30.484375 C 106.410156 -31.597656 107.234375 -33.101562 107.234375 -35 C 107.234375 -36.582031 106.835938 -37.820312 106.046875 -38.71875 C 105.253906 -39.625 103.671875 -40.363281 101.296875 -40.9375 C 98.921875 -41.519531 95.515625 -41.941406 91.078125 -42.203125 C 86.640625 -42.472656 80.78125 -42.765625 73.5 -43.078125 C 57.019531 -43.710938 43.765625 -45.164062 33.734375 -47.4375 C 23.703125 -49.707031 16.390625 -53.320312 11.796875 -58.28125 C 7.203125 -63.25 4.90625 -69.957031 4.90625 -78.40625 C 4.90625 -90.65625 10.738281 -99.390625 22.40625 -104.609375 C 34.082031 -109.835938 50.632812 -112.453125 72.0625 -112.453125 C 86.320312 -112.453125 98.492188 -111.1875 108.578125 -108.65625 C 118.660156 -106.125 126.34375 -102.054688 131.625 -96.453125 C 136.90625 -90.859375 139.546875 -83.363281 139.546875 -73.96875 L 102.484375 -73.96875 C 102.484375 -77.976562 99.789062 -80.585938 94.40625 -81.796875 C 89.019531 -83.015625 80.519531 -83.625 68.90625 -83.625 C 61.613281 -83.625 56.015625 -83.4375 52.109375 -83.0625 C 48.203125 -82.695312 45.535156 -82.015625 44.109375 -81.015625 C 42.679688 -80.015625 41.96875 -78.5625 41.96875 -76.65625 C 41.96875 -74.757812 42.757812 -73.363281 44.34375 -72.46875 C 45.925781 -71.570312 48.960938 -70.9375 53.453125 -70.5625 C 57.941406 -70.195312 64.625 -69.800781 73.5 -69.375 C 84.476562 -68.84375 94.320312 -68.128906 103.03125 -67.234375 C 111.738281 -66.335938 119.15625 -64.804688 125.28125 -62.640625 C 131.40625 -60.472656 136.101562 -57.273438 139.375 -53.046875 C 142.65625 -48.828125 144.296875 -43.128906 144.296875 -35.953125 C 144.296875 -25.816406 141.492188 -18.054688 135.890625 -12.671875 C 130.296875 -7.285156 122.269531 -3.5625 111.8125 -1.5 C 101.363281 0.550781 88.800781 1.578125 74.125 1.578125 Z M 74.125 1.578125 "/></g></g></g><g fill="#50e5f9" fill-opacity="1"><g transform="translate(204.709355, 388.390388)"><g><path d="M 72.390625 1.578125 C 47.992188 1.578125 30.273438 -3.195312 19.234375 -12.75 C 8.203125 -22.300781 2.6875 -36.582031 2.6875 -55.59375 C 2.6875 -74.5 8.203125 -88.703125 19.234375 -98.203125 C 30.273438 -107.703125 47.992188 -112.453125 72.390625 -112.453125 C 96.671875 -112.453125 114.351562 -107.703125 125.4375 -98.203125 C 136.53125 -88.703125 142.078125 -74.5 142.078125 -55.59375 C 142.078125 -36.695312 136.53125 -22.441406 125.4375 -12.828125 C 114.351562 -3.222656 96.671875 1.578125 72.390625 1.578125 Z M 72.390625 -29.78125 C 81.046875 -29.78125 87.722656 -30.890625 92.421875 -33.109375 C 97.117188 -35.328125 100.390625 -38.363281 102.234375 -42.21875 C 104.085938 -46.070312 105.015625 -50.53125 105.015625 -55.59375 C 105.015625 -60.664062 104.113281 -65.101562 102.3125 -68.90625 C 100.519531 -72.707031 97.273438 -75.6875 92.578125 -77.84375 C 87.878906 -80.007812 81.148438 -81.09375 72.390625 -81.09375 C 63.722656 -81.09375 57.039062 -80.035156 52.34375 -77.921875 C 47.644531 -75.816406 44.398438 -72.835938 42.609375 -68.984375 C 40.816406 -65.128906 39.921875 -60.664062 39.921875 -55.59375 C 39.921875 -50.53125 40.816406 -46.039062 42.609375 -42.125 C 44.398438 -38.21875 47.644531 -35.179688 52.34375 -33.015625 C 57.039062 -30.859375 63.722656 -29.78125 72.390625 -29.78125 Z M 72.390625 -29.78125 "/></g></g></g><g fill="#50e5f9" fill-opacity="1"><g transform="translate(349.629441, 388.390388)"><g><path d="M 4.28125 0 L 4.28125 -110.875 L 121.484375 -110.875 L 121.484375 -79.515625 L 41.5 -79.515625 L 41.5 -62.40625 L 111.984375 -62.40625 L 111.984375 -31.046875 L 41.5 -31.046875 L 41.5 0 Z M 4.28125 0 "/></g></g></g><g fill="#50e5f9" fill-opacity="1"><g transform="translate(473.959793, 388.390388)"><g><path d="M 52.265625 0 L 52.265625 -79.515625 L 2.6875 -79.515625 L 2.6875 -110.875 L 138.90625 -110.875 L 138.90625 -79.515625 L 89.484375 -79.515625 L 89.484375 0 Z M 52.265625 0 "/></g></g></g><g fill="#ffffff" fill-opacity="1"><g transform="translate(864.256098, 355.925176)"><g><path d="M 31.734375 -29.375 L 19.015625 0 L 12.296875 0 L -0.375 -29.375 L 6.96875 -29.375 L 15.90625 -8.390625 L 24.96875 -29.375 Z M 31.734375 -29.375 "/></g></g></g><g fill="#ffffff" fill-opacity="1"><g transform="translate(895.564006, 355.925176)"><g><path d="M 5.5 0.328125 C 4.351562 0.328125 3.382812 -0.0625 2.59375 -0.84375 C 1.8125 -1.625 1.421875 -2.601562 1.421875 -3.78125 C 1.421875 -4.976562 1.8125 -5.945312 2.59375 -6.6875 C 3.382812 -7.4375 4.351562 -7.8125 5.5 -7.8125 C 6.644531 -7.8125 7.609375 -7.4375 8.390625 -6.6875 C 9.171875 -5.945312 9.5625 -4.976562 9.5625 -3.78125 C 9.5625 -2.601562 9.171875 -1.625 8.390625 -0.84375 C 7.609375 -0.0625 6.644531 0.328125 5.5 0.328125 Z M 5.5 0.328125 "/></g></g></g><g fill="#ffffff" fill-opacity="1"><g transform="translate(906.559547, 355.925176)"><g/></g></g><g fill="#ffffff" fill-opacity="1"><g transform="translate(918.436414, 355.925176)"><g><path d="M 12.96875 -29.375 L 12.96875 0 L 6.171875 0 L 6.171875 -23.921875 L 0.296875 -23.921875 L 0.296875 -29.375 Z M 12.96875 -29.375 "/></g></g></g><g fill="#ffffff" fill-opacity="1"><g transform="translate(934.887758, 355.925176)"><g><path d="M 5.5 0.328125 C 4.351562 0.328125 3.382812 -0.0625 2.59375 -0.84375 C 1.8125 -1.625 1.421875 -2.601562 1.421875 -3.78125 C 1.421875 -4.976562 1.8125 -5.945312 2.59375 -6.6875 C 3.382812 -7.4375 4.351562 -7.8125 5.5 -7.8125 C 6.644531 -7.8125 7.609375 -7.4375 8.390625 -6.6875 C 9.171875 -5.945312 9.5625 -4.976562 9.5625 -3.78125 C 9.5625 -2.601562 9.171875 -1.625 8.390625 -0.84375 C 7.609375 -0.0625 6.644531 0.328125 5.5 0.328125 Z M 5.5 0.328125 "/></g></g></g><g fill="#ffffff" fill-opacity="1"><g transform="translate(945.883299, 355.925176)"><g><path d="M 12.96875 -29.375 L 12.96875 0 L 6.171875 0 L 6.171875 -23.921875 L 0.296875 -23.921875 L 0.296875 -29.375 Z M 12.96875 -29.375 "/></g></g></g><g fill="#ffffff" fill-opacity="1"><g transform="translate(962.334642, 355.925176)"><g><path d="M 5.5 0.328125 C 4.351562 0.328125 3.382812 -0.0625 2.59375 -0.84375 C 1.8125 -1.625 1.421875 -2.601562 1.421875 -3.78125 C 1.421875 -4.976562 1.8125 -5.945312 2.59375 -6.6875 C 3.382812 -7.4375 4.351562 -7.8125 5.5 -7.8125 C 6.644531 -7.8125 7.609375 -7.4375 8.390625 -6.6875 C 9.171875 -5.945312 9.5625 -4.976562 9.5625 -3.78125 C 9.5625 -2.601562 9.171875 -1.625 8.390625 -0.84375 C 7.609375 -0.0625 6.644531 0.328125 5.5 0.328125 Z M 5.5 0.328125 "/></g></g></g><g fill="#ffffff" fill-opacity="1"><g transform="translate(973.330183, 355.925176)"><g><path d="M 14.234375 0.5 C 11.796875 0.5 9.625 -0.0976562 7.71875 -1.296875 C 5.820312 -2.503906 4.332031 -4.25 3.25 -6.53125 C 2.175781 -8.8125 1.640625 -11.53125 1.640625 -14.6875 C 1.640625 -17.851562 2.175781 -20.570312 3.25 -22.84375 C 4.332031 -25.125 5.820312 -26.863281 7.71875 -28.0625 C 9.625 -29.269531 11.796875 -29.875 14.234375 -29.875 C 16.660156 -29.875 18.828125 -29.269531 20.734375 -28.0625 C 22.640625 -26.863281 24.128906 -25.125 25.203125 -22.84375 C 26.273438 -20.570312 26.8125 -17.851562 26.8125 -14.6875 C 26.8125 -11.53125 26.273438 -8.8125 25.203125 -6.53125 C 24.128906 -4.25 22.640625 -2.503906 20.734375 -1.296875 C 18.828125 -0.0976562 16.660156 0.5 14.234375 0.5 Z M 14.234375 -5.25 C 16.015625 -5.25 17.414062 -6.015625 18.4375 -7.546875 C 19.46875 -9.085938 19.984375 -11.46875 19.984375 -14.6875 C 19.984375 -17.90625 19.46875 -20.28125 18.4375 -21.8125 C 17.414062 -23.351562 16.015625 -24.125 14.234375 -24.125 C 12.460938 -24.125 11.066406 -23.351562 10.046875 -21.8125 C 9.023438 -20.28125 8.515625 -17.90625 8.515625 -14.6875 C 8.515625 -11.46875 9.023438 -9.085938 10.046875 -7.546875 C 11.066406 -6.015625 12.460938 -5.25 14.234375 -5.25 Z M 14.234375 -5.25 "/></g></g></g><path stroke-linecap="butt" transform="matrix(0.00000000130836, -0.749634, 0.749634, 0.00000000130836, 663.494774, 418.746681)" fill="none" stroke-linejoin="miter" d="M 0.000782791 1.997525 L 190.724035 1.997525 " stroke="#ffffff" stroke-width="4" stroke-opacity="1" stroke-miterlimit="4"/></svg>