<svg xmlns="http://www.w3.org/2000/svg" xmlns:xlink="http://www.w3.org/1999/xlink" width="1366" zoomAndPan="magnify" viewBox="0 0 1024.5 576" height="768" preserveAspectRatio="xMidYMid meet" version="1.0"><defs><g/></defs><path fill="#50e5f9" d="M 770.300781 289.496094 C 761.480469 289.496094 754.457031 296.671875 754.457031 305.34375 C 754.457031 314.164062 761.632812 321.1875 770.300781 321.1875 C 779.121094 321.1875 786.148438 314.011719 786.148438 305.34375 C 786.148438 296.671875 779.121094 289.496094 770.300781 289.496094 Z M 717.980469 326.273438 C 715.140625 326.273438 712.296875 326.421875 709.757812 327.167969 C 707.964844 327.617188 706.320312 328.363281 705.273438 329.410156 C 703.925781 330.90625 703.777344 332.699219 704.375 334.34375 C 704.972656 335.839844 706.617188 336.886719 708.410156 337.484375 C 712.296875 338.828125 716.632812 339.128906 720.671875 339.875 C 721.417969 340.023438 722.3125 340.324219 722.761719 340.773438 C 723.210938 341.371094 722.914062 342.269531 722.164062 342.566406 C 720.820312 343.3125 719.175781 343.3125 717.53125 343.164062 C 716.183594 343.164062 714.539062 343.015625 713.496094 342.269531 C 712.597656 341.820312 712.597656 340.921875 712.746094 340.175781 L 703.628906 340.175781 C 703.628906 341.519531 703.925781 343.015625 704.824219 344.210938 C 705.71875 345.257812 707.066406 346.003906 708.5625 346.304688 C 710.953125 347.050781 713.496094 347.199219 716.035156 347.199219 C 719.472656 347.199219 722.914062 347.199219 726.203125 346.453125 C 728.144531 346.003906 730.089844 345.257812 731.285156 343.910156 C 733.527344 341.667969 732.929688 338.082031 730.089844 336.4375 C 728.59375 335.539062 726.800781 335.09375 725.003906 334.644531 C 722.3125 334.046875 719.773438 333.746094 717.082031 333.296875 C 716.183594 333.148438 715.140625 333 714.390625 332.550781 C 713.644531 332.101562 713.496094 331.054688 714.390625 330.605469 C 715.4375 330.007812 716.933594 330.007812 718.277344 330.007812 C 719.625 330.007812 721.117188 330.160156 722.3125 330.757812 C 722.914062 331.054688 723.210938 331.652344 723.210938 332.25 L 731.882812 332.25 C 731.882812 331.207031 731.582031 330.007812 730.835938 329.113281 C 729.9375 327.917969 728.292969 327.167969 726.648438 326.71875 C 723.511719 326.421875 720.671875 326.273438 717.980469 326.273438 Z M 736.664062 326.871094 L 736.664062 347.5 L 761.929688 347.5 L 761.929688 343.015625 L 745.933594 343.015625 L 745.933594 338.980469 L 760.136719 338.980469 L 760.136719 334.644531 L 745.933594 334.644531 L 745.933594 331.355469 L 761.332031 331.355469 L 761.332031 326.871094 Z M 778.375 326.871094 C 778.375 326.871094 770.601562 326.871094 766.714844 326.871094 L 766.714844 347.5 L 775.535156 347.5 L 775.535156 333.597656 L 787.644531 347.5 L 799.753906 347.5 L 799.753906 326.871094 L 790.933594 326.871094 L 790.933594 340.625 Z M 815.597656 326.871094 C 815.597656 326.871094 806.03125 340.625 801.246094 347.5 L 810.515625 347.5 L 812.757812 343.761719 L 827.109375 343.761719 L 829.203125 347.5 L 839.515625 347.5 L 825.914062 326.871094 Z M 820.234375 331.804688 L 824.71875 339.277344 L 815.597656 339.277344 Z M 696.152344 353.480469 L 696.300781 364.691406 L 738.460938 364.542969 C 740.550781 364.992188 741.898438 366.335938 741.449219 369.625 L 715.4375 414.921875 L 723.808594 422.84375 L 763.875 353.480469 Z M 776.429688 353.480469 L 815.898438 422.546875 L 824.566406 414.773438 L 798.40625 369.476562 C 797.957031 366.335938 799.152344 364.839844 801.394531 364.394531 L 843.554688 364.542969 L 843.554688 353.480469 Z M 769.851562 364.992188 L 732.777344 428.375 L 742.644531 433.160156 L 767.3125 391.449219 C 768.207031 390.703125 768.957031 390.40625 769.851562 390.40625 C 770.75 390.40625 771.648438 390.703125 772.542969 391.449219 L 797.210938 433.308594 L 807.375 428.078125 Z M 769.851562 364.992188 " fill-opacity="1" fill-rule="nonzero"/><path fill="#50e5f9" d="M 26.742188 466.21875 C 76.902344 425.769531 141.101562 419.070312 203.3125 421.46875 C 272.894531 424.132812 341.949219 437.5 409.953125 451.507812 C 540.957031 478.445312 673.1875 510.355469 807.992188 498.304688 C 842.015625 495.609375 875.445312 489.613281 908.285156 480.316406 C 939.960938 471.015625 976.171875 459.316406 1000.769531 436.648438 C 1001.183594 436.21875 1001.515625 435.730469 1001.769531 435.191406 C 1002.027344 434.648438 1002.1875 434.082031 1002.257812 433.488281 C 1002.332031 432.890625 1002.304688 432.300781 1002.183594 431.714844 C 1002.0625 431.128906 1001.851562 430.578125 1001.554688 430.0625 C 1001.253906 429.542969 1000.878906 429.085938 1000.429688 428.691406 C 999.980469 428.292969 999.484375 427.980469 998.933594 427.746094 C 998.382812 427.511719 997.808594 427.371094 997.210938 427.324219 C 996.613281 427.273438 996.027344 427.324219 995.445312 427.464844 C 964.734375 436.035156 936.160156 451.480469 905.300781 460.222656 C 873.421875 469.316406 840.984375 475.480469 807.992188 478.710938 C 743.648438 484.996094 678.304688 481.398438 614.253906 472.65625 C 476.785156 453.847656 340.515625 412.785156 201.003906 411.085938 C 138.703125 410.328125 72.308594 421.910156 23.464844 462.945312 C 21.15625 464.875 24.460938 468.09375 26.742188 466.21875 Z M 26.742188 466.21875 " fill-opacity="1" fill-rule="nonzero"/><g fill="#ffffff" fill-opacity="1"><g transform="translate(59.040144, 253.057274)"><g><path d="M 96.53125 2.109375 C 76.394531 2.109375 59.285156 0.628906 45.203125 -2.328125 C 31.117188 -5.285156 20.414062 -10.671875 13.09375 -18.484375 C 5.769531 -26.296875 2.109375 -37.523438 2.109375 -52.171875 L 57.03125 -52.171875 C 57.03125 -49.773438 58.082031 -47.660156 60.1875 -45.828125 C 62.300781 -44.003906 66.347656 -42.597656 72.328125 -41.609375 C 78.316406 -40.617188 87.085938 -40.125 98.640625 -40.125 C 109.484375 -40.125 117.578125 -40.367188 122.921875 -40.859375 C 128.273438 -41.359375 131.796875 -42.171875 133.484375 -43.296875 C 135.179688 -44.421875 136.03125 -45.898438 136.03125 -47.734375 C 136.03125 -49.847656 135.148438 -51.429688 133.390625 -52.484375 C 131.628906 -53.546875 127.929688 -54.320312 122.296875 -54.8125 C 116.660156 -55.300781 108.070312 -55.6875 96.53125 -55.96875 C 74.28125 -56.675781 56.394531 -58.578125 42.875 -61.671875 C 29.351562 -64.773438 19.53125 -69.671875 13.40625 -76.359375 C 7.28125 -83.046875 4.21875 -92.09375 4.21875 -103.5 C 4.21875 -119.832031 11.960938 -131.660156 27.453125 -138.984375 C 42.941406 -146.304688 65.265625 -149.96875 94.421875 -149.96875 C 113.710938 -149.96875 130.046875 -148.273438 143.421875 -144.890625 C 156.796875 -141.515625 167.003906 -136.054688 174.046875 -128.515625 C 181.085938 -120.984375 184.609375 -110.882812 184.609375 -98.21875 L 129.6875 -98.21875 C 129.6875 -102.15625 126.445312 -104.722656 119.96875 -105.921875 C 113.488281 -107.117188 103.5625 -107.71875 90.1875 -107.71875 C 81.601562 -107.71875 75.09375 -107.539062 70.65625 -107.1875 C 66.21875 -106.84375 63.1875 -106.175781 61.5625 -105.1875 C 59.945312 -104.195312 59.140625 -102.71875 59.140625 -100.75 C 59.140625 -98.914062 60.019531 -97.578125 61.78125 -96.734375 C 63.539062 -95.890625 67.09375 -95.328125 72.4375 -95.046875 C 77.789062 -94.765625 85.820312 -94.414062 96.53125 -94 C 111.175781 -93.425781 124.304688 -92.539062 135.921875 -91.34375 C 147.535156 -90.15625 157.425781 -88.082031 165.59375 -85.125 C 173.757812 -82.164062 180.023438 -77.832031 184.390625 -72.125 C 188.753906 -66.425781 190.9375 -58.71875 190.9375 -49 C 190.9375 -35.476562 187.273438 -25.019531 179.953125 -17.625 C 172.628906 -10.238281 161.960938 -5.101562 147.953125 -2.21875 C 133.941406 0.664062 116.800781 2.109375 96.53125 2.109375 Z M 96.53125 2.109375 "/></g></g></g><g fill="#ffffff" fill-opacity="1"><g transform="translate(252.073534, 253.057274)"><g><path d="M 4.21875 0 L 4.21875 -147.859375 L 59.140625 -147.859375 L 59.140625 0 Z M 4.21875 0 "/></g></g></g><g fill="#ffffff" fill-opacity="1"><g transform="translate(315.432417, 253.057274)"><g><path d="M 88.71875 2.109375 C 61.539062 2.109375 40.3125 -4.15625 25.03125 -16.6875 C 9.75 -29.21875 2.109375 -48.367188 2.109375 -74.140625 C 2.109375 -99.765625 9.992188 -118.804688 25.765625 -131.265625 C 41.535156 -143.734375 64.628906 -149.96875 95.046875 -149.96875 C 154.191406 -149.96875 184.957031 -129.617188 187.34375 -88.921875 L 131.171875 -88.921875 C 130.179688 -92.722656 126.832031 -96.101562 121.125 -99.0625 C 115.425781 -102.019531 106.734375 -103.5 95.046875 -103.5 C 84.203125 -103.5 76.066406 -102.085938 70.640625 -99.265625 C 65.222656 -96.453125 61.597656 -92.6875 59.765625 -87.96875 C 57.941406 -83.25 57.03125 -77.9375 57.03125 -72.03125 C 57.03125 -66.113281 57.941406 -60.550781 59.765625 -55.34375 C 61.597656 -50.132812 65.257812 -45.941406 70.75 -42.765625 C 76.25 -39.597656 84.347656 -38.015625 95.046875 -38.015625 C 105.609375 -38.015625 114.019531 -38.929688 120.28125 -40.765625 C 126.550781 -42.597656 130.179688 -45.976562 131.171875 -50.90625 L 91.453125 -50.90625 L 91.453125 -80.46875 L 187.34375 -80.46875 L 187.34375 0 L 155.671875 0 L 151.65625 -21.328125 C 145.457031 -14.003906 137.289062 -8.265625 127.15625 -4.109375 C 117.019531 0.0351562 104.207031 2.109375 88.71875 2.109375 Z M 88.71875 2.109375 "/></g></g></g><g fill="#ffffff" fill-opacity="1"><g transform="translate(504.87546, 253.057274)"><g><path d="M 4.21875 0 L 4.21875 -147.859375 L 71.8125 -147.859375 L 117.4375 -63.359375 L 163.0625 -147.859375 L 230.65625 -147.859375 L 230.65625 0 L 175.734375 0 L 175.734375 -70.328125 L 135.390625 0 L 99.484375 0 L 59.140625 -70.328125 L 59.140625 0 Z M 4.21875 0 "/></g></g></g><g fill="#ffffff" fill-opacity="1"><g transform="translate(739.725743, 253.057274)"><g><path d="M 2.109375 0 L 63.359375 -147.859375 L 144.890625 -147.859375 L 206.15625 0 L 145.734375 0 L 135.609375 -26.609375 L 72.65625 -26.609375 L 62.515625 0 Z M 87.015625 -64.640625 L 121.234375 -64.640625 L 104.125 -109.828125 Z M 87.015625 -64.640625 "/></g></g></g><g fill="#50e5f9" fill-opacity="1"><g transform="translate(59.040144, 386.507283)"><g><path d="M 74.125 1.578125 C 59.03125 1.578125 46.148438 0.472656 35.484375 -1.734375 C 24.816406 -3.953125 16.679688 -7.960938 11.078125 -13.765625 C 5.484375 -19.578125 2.6875 -27.925781 2.6875 -38.8125 L 39.921875 -38.8125 C 39.921875 -36.375 40.867188 -34.285156 42.765625 -32.546875 C 44.660156 -30.804688 48.195312 -29.488281 53.375 -28.59375 C 58.550781 -27.695312 65.992188 -27.25 75.703125 -27.25 C 84.472656 -27.25 91.097656 -27.507812 95.578125 -28.03125 C 100.066406 -28.5625 103.128906 -29.378906 104.765625 -30.484375 C 106.410156 -31.597656 107.234375 -33.101562 107.234375 -35 C 107.234375 -36.582031 106.835938 -37.820312 106.046875 -38.71875 C 105.253906 -39.625 103.671875 -40.363281 101.296875 -40.9375 C 98.921875 -41.519531 95.515625 -41.941406 91.078125 -42.203125 C 86.640625 -42.472656 80.78125 -42.765625 73.5 -43.078125 C 57.019531 -43.710938 43.765625 -45.164062 33.734375 -47.4375 C 23.703125 -49.707031 16.390625 -53.320312 11.796875 -58.28125 C 7.203125 -63.25 4.90625 -69.957031 4.90625 -78.40625 C 4.90625 -90.65625 10.738281 -99.390625 22.40625 -104.609375 C 34.082031 -109.835938 50.632812 -112.453125 72.0625 -112.453125 C 86.320312 -112.453125 98.492188 -111.1875 108.578125 -108.65625 C 118.660156 -106.125 126.34375 -102.054688 131.625 -96.453125 C 136.90625 -90.859375 139.546875 -83.363281 139.546875 -73.96875 L 102.484375 -73.96875 C 102.484375 -77.976562 99.789062 -80.585938 94.40625 -81.796875 C 89.019531 -83.015625 80.519531 -83.625 68.90625 -83.625 C 61.613281 -83.625 56.015625 -83.4375 52.109375 -83.0625 C 48.203125 -82.695312 45.535156 -82.015625 44.109375 -81.015625 C 42.679688 -80.015625 41.96875 -78.5625 41.96875 -76.65625 C 41.96875 -74.757812 42.757812 -73.363281 44.34375 -72.46875 C 45.925781 -71.570312 48.960938 -70.9375 53.453125 -70.5625 C 57.941406 -70.195312 64.625 -69.800781 73.5 -69.375 C 84.476562 -68.84375 94.320312 -68.128906 103.03125 -67.234375 C 111.738281 -66.335938 119.15625 -64.804688 125.28125 -62.640625 C 131.40625 -60.472656 136.101562 -57.273438 139.375 -53.046875 C 142.65625 -48.828125 144.296875 -43.128906 144.296875 -35.953125 C 144.296875 -25.816406 141.492188 -18.054688 135.890625 -12.671875 C 130.296875 -7.285156 122.269531 -3.5625 111.8125 -1.5 C 101.363281 0.550781 88.800781 1.578125 74.125 1.578125 Z M 74.125 1.578125 "/></g></g></g><g fill="#50e5f9" fill-opacity="1"><g transform="translate(206.177594, 386.507283)"><g><path d="M 72.390625 1.578125 C 47.992188 1.578125 30.273438 -3.195312 19.234375 -12.75 C 8.203125 -22.300781 2.6875 -36.582031 2.6875 -55.59375 C 2.6875 -74.5 8.203125 -88.703125 19.234375 -98.203125 C 30.273438 -107.703125 47.992188 -112.453125 72.390625 -112.453125 C 96.671875 -112.453125 114.351562 -107.703125 125.4375 -98.203125 C 136.53125 -88.703125 142.078125 -74.5 142.078125 -55.59375 C 142.078125 -36.695312 136.53125 -22.441406 125.4375 -12.828125 C 114.351562 -3.222656 96.671875 1.578125 72.390625 1.578125 Z M 72.390625 -29.78125 C 81.046875 -29.78125 87.722656 -30.890625 92.421875 -33.109375 C 97.117188 -35.328125 100.390625 -38.363281 102.234375 -42.21875 C 104.085938 -46.070312 105.015625 -50.53125 105.015625 -55.59375 C 105.015625 -60.664062 104.113281 -65.101562 102.3125 -68.90625 C 100.519531 -72.707031 97.273438 -75.6875 92.578125 -77.84375 C 87.878906 -80.007812 81.148438 -81.09375 72.390625 -81.09375 C 63.722656 -81.09375 57.039062 -80.035156 52.34375 -77.921875 C 47.644531 -75.816406 44.398438 -72.835938 42.609375 -68.984375 C 40.816406 -65.128906 39.921875 -60.664062 39.921875 -55.59375 C 39.921875 -50.53125 40.816406 -46.039062 42.609375 -42.125 C 44.398438 -38.21875 47.644531 -35.179688 52.34375 -33.015625 C 57.039062 -30.859375 63.722656 -29.78125 72.390625 -29.78125 Z M 72.390625 -29.78125 "/></g></g></g><g fill="#50e5f9" fill-opacity="1"><g transform="translate(351.09768, 386.507283)"><g><path d="M 4.28125 0 L 4.28125 -110.875 L 121.484375 -110.875 L 121.484375 -79.515625 L 41.5 -79.515625 L 41.5 -62.40625 L 111.984375 -62.40625 L 111.984375 -31.046875 L 41.5 -31.046875 L 41.5 0 Z M 4.28125 0 "/></g></g></g><g fill="#50e5f9" fill-opacity="1"><g transform="translate(475.428032, 386.507283)"><g><path d="M 52.265625 0 L 52.265625 -79.515625 L 2.6875 -79.515625 L 2.6875 -110.875 L 138.90625 -110.875 L 138.90625 -79.515625 L 89.484375 -79.515625 L 89.484375 0 Z M 52.265625 0 "/></g></g></g><g fill="#ffffff" fill-opacity="1"><g transform="translate(66.53579, 507.170882)"><g><path d="M 31.734375 -29.375 L 19.015625 0 L 12.296875 0 L -0.375 -29.375 L 6.96875 -29.375 L 15.90625 -8.390625 L 24.96875 -29.375 Z M 31.734375 -29.375 "/></g></g></g><g fill="#ffffff" fill-opacity="1"><g transform="translate(97.843698, 507.170882)"><g><path d="M 5.5 0.328125 C 4.351562 0.328125 3.382812 -0.0625 2.59375 -0.84375 C 1.8125 -1.625 1.421875 -2.601562 1.421875 -3.78125 C 1.421875 -4.976562 1.8125 -5.945312 2.59375 -6.6875 C 3.382812 -7.4375 4.351562 -7.8125 5.5 -7.8125 C 6.644531 -7.8125 7.609375 -7.4375 8.390625 -6.6875 C 9.171875 -5.945312 9.5625 -4.976562 9.5625 -3.78125 C 9.5625 -2.601562 9.171875 -1.625 8.390625 -0.84375 C 7.609375 -0.0625 6.644531 0.328125 5.5 0.328125 Z M 5.5 0.328125 "/></g></g></g><g fill="#ffffff" fill-opacity="1"><g transform="translate(108.839239, 507.170882)"><g/></g></g><g fill="#ffffff" fill-opacity="1"><g transform="translate(120.716106, 507.170882)"><g><path d="M 12.96875 -29.375 L 12.96875 0 L 6.171875 0 L 6.171875 -23.921875 L 0.296875 -23.921875 L 0.296875 -29.375 Z M 12.96875 -29.375 "/></g></g></g><g fill="#ffffff" fill-opacity="1"><g transform="translate(137.167449, 507.170882)"><g><path d="M 5.5 0.328125 C 4.351562 0.328125 3.382812 -0.0625 2.59375 -0.84375 C 1.8125 -1.625 1.421875 -2.601562 1.421875 -3.78125 C 1.421875 -4.976562 1.8125 -5.945312 2.59375 -6.6875 C 3.382812 -7.4375 4.351562 -7.8125 5.5 -7.8125 C 6.644531 -7.8125 7.609375 -7.4375 8.390625 -6.6875 C 9.171875 -5.945312 9.5625 -4.976562 9.5625 -3.78125 C 9.5625 -2.601562 9.171875 -1.625 8.390625 -0.84375 C 7.609375 -0.0625 6.644531 0.328125 5.5 0.328125 Z M 5.5 0.328125 "/></g></g></g><g fill="#ffffff" fill-opacity="1"><g transform="translate(148.16299, 507.170882)"><g><path d="M 12.96875 -29.375 L 12.96875 0 L 6.171875 0 L 6.171875 -23.921875 L 0.296875 -23.921875 L 0.296875 -29.375 Z M 12.96875 -29.375 "/></g></g></g><g fill="#ffffff" fill-opacity="1"><g transform="translate(164.614334, 507.170882)"><g><path d="M 5.5 0.328125 C 4.351562 0.328125 3.382812 -0.0625 2.59375 -0.84375 C 1.8125 -1.625 1.421875 -2.601562 1.421875 -3.78125 C 1.421875 -4.976562 1.8125 -5.945312 2.59375 -6.6875 C 3.382812 -7.4375 4.351562 -7.8125 5.5 -7.8125 C 6.644531 -7.8125 7.609375 -7.4375 8.390625 -6.6875 C 9.171875 -5.945312 9.5625 -4.976562 9.5625 -3.78125 C 9.5625 -2.601562 9.171875 -1.625 8.390625 -0.84375 C 7.609375 -0.0625 6.644531 0.328125 5.5 0.328125 Z M 5.5 0.328125 "/></g></g></g><g fill="#ffffff" fill-opacity="1"><g transform="translate(175.609875, 507.170882)"><g><path d="M 14.234375 0.5 C 11.796875 0.5 9.625 -0.0976562 7.71875 -1.296875 C 5.820312 -2.503906 4.332031 -4.25 3.25 -6.53125 C 2.175781 -8.8125 1.640625 -11.53125 1.640625 -14.6875 C 1.640625 -17.851562 2.175781 -20.570312 3.25 -22.84375 C 4.332031 -25.125 5.820312 -26.863281 7.71875 -28.0625 C 9.625 -29.269531 11.796875 -29.875 14.234375 -29.875 C 16.660156 -29.875 18.828125 -29.269531 20.734375 -28.0625 C 22.640625 -26.863281 24.128906 -25.125 25.203125 -22.84375 C 26.273438 -20.570312 26.8125 -17.851562 26.8125 -14.6875 C 26.8125 -11.53125 26.273438 -8.8125 25.203125 -6.53125 C 24.128906 -4.25 22.640625 -2.503906 20.734375 -1.296875 C 18.828125 -0.0976562 16.660156 0.5 14.234375 0.5 Z M 14.234375 -5.25 C 16.015625 -5.25 17.414062 -6.015625 18.4375 -7.546875 C 19.46875 -9.085938 19.984375 -11.46875 19.984375 -14.6875 C 19.984375 -17.90625 19.46875 -20.28125 18.4375 -21.8125 C 17.414062 -23.351562 16.015625 -24.125 14.234375 -24.125 C 12.460938 -24.125 11.066406 -23.351562 10.046875 -21.8125 C 9.023438 -20.28125 8.515625 -17.90625 8.515625 -14.6875 C 8.515625 -11.46875 9.023438 -9.085938 10.046875 -7.546875 C 11.066406 -6.015625 12.460938 -5.25 14.234375 -5.25 Z M 14.234375 -5.25 "/></g></g></g><path stroke-linecap="butt" transform="matrix(0.00000000130836, -0.749634, 0.749634, 0.00000000130836, 659.82766, 430.970274)" fill="none" stroke-linejoin="miter" d="M 0.00203354 2.001596 L 190.720075 2.001596 " stroke="#ffffff" stroke-width="4" stroke-opacity="1" stroke-miterlimit="4"/></svg>